<?xml version="1.0" encoding="utf-8"?>
<!-- Generator: Adobe Illustrator 28.2.0, SVG Export Plug-In . SVG Version: 6.00 Build 0)  -->
<svg version="1.1" id="Layer_1" xmlns="http://www.w3.org/2000/svg" xmlns:xlink="http://www.w3.org/1999/xlink" x="0px" y="0px"
	 viewBox="0 0 4000 3000" style="enable-background:new 0 0 4000 3000;" xml:space="preserve">
<style type="text/css">
	.st0{fill:#58595B;}
	.st1{fill:#8DC63F;}
	.st2{fill:#06402A;}
</style>
<g>
	<g>
		<rect x="1674.21" y="1238.62" class="st0" width="11.68" height="501.13"/>
		<g>
			<path class="st1" d="M1244.84,1291.04c-0.88,0.93-1.73,1.87-2.6,2.8C1243.09,1292.91,1243.96,1291.98,1244.84,1291.04z"/>
			<path class="st1" d="M1215.3,1324.73c0.56-0.68,1.27-1.54,2.1-2.54C1216.71,1323.04,1216,1323.87,1215.3,1324.73z"/>
			<path class="st1" d="M1590.09,1236.47v501.73h-116.31v-313.87l-116.79,263.83h-83.73l-88.15-202.96
				c4.45-11.98,9.09-23.81,13.86-35.47c10.71-26.1,24.03-53.37,41.96-85.7l75.08,165.87l134.14-293.43H1590.09z"/>
			<path class="st2" d="M1106.98,1254.8c7.04-6.74,14.09-13.29,21.16-19.66h-456.3v105.58h148.77v333.8l47.23-96.13l0.23,0.07
				c27.77-53.97,56.41-102.34,86.62-146.1v-91.63h70.93C1051.7,1310.35,1078.97,1281.57,1106.98,1254.8z"/>
			<path class="st2" d="M1271.76,1264.25c-9.27,8.65-18.24,17.57-26.88,26.75c-0.01,0.01-0.02,0.03-0.04,0.04
				c-0.88,0.94-1.74,1.88-2.6,2.8c-3.17,3.44-6.16,6.76-8.96,9.92c-2.47,2.77-4.91,5.56-7.33,8.37c-3.51,4.06-6.45,7.55-8.54,10.06
				c-0.83,0.99-1.54,1.85-2.1,2.54c-0.08,0.1-0.15,0.2-0.23,0.29c-0.14,0.17-0.28,0.33-0.41,0.5c-0.44,0.54-0.74,0.91-0.87,1.07
				c-0.03,0.03-0.06,0.07-0.08,0.1c-0.01,0.01-0.01,0.01-0.01,0.01c-15.75,19.49-30.34,39.92-43.89,61.24
				c-49.81,78.42-95.77,158.97-136.47,242.49c-15.77,32.36-30.45,65.23-43.3,98.88c-1.08,2.82-1.85,5.75-2.79,8.74h102.26
				c1.01-4.33,2.02-8.15,2.79-12.01c10.42-52.86,23.09-105.15,38.15-156.91c12.75-43.82,27.7-86.86,44.99-129.06
				c12.75-31.09,28.02-61,44.36-90.42c14.03-25.24,29.59-49.41,46.75-72.56c6.27-8.46,13.21-16.41,20.83-25.73
				C1282.38,1255.02,1277.1,1259.43,1271.76,1264.25z"/>
			<path class="st1" d="M1144.93,1380.13c15.8-25,32.64-49.46,50.6-72.95c11.27-14.75,23.06-29.01,35.3-42.82
				c3.72-3.38,9.03-9.12,16.28-17.81c25.11-26.62,52.06-51.44,80.66-74.54c59.08-46.17,120.3-83.15,120.3-83.15
				c-4.41,0.41-9.12,1.13-14.05,2.09c-0.02-0.05-0.05-0.1-0.07-0.15c-2.54,0.6-5.1,1.16-7.63,1.8c-11.32,2.65-23.46,6.35-35.45,10.5
				c-27.22,9.04-53.52,20.06-79.01,32.82c-0.07,0.03-0.11,0.05-0.11,0.05l0,0c-27.88,13.96-54.79,30-80.86,47.78
				c-38.42,26.21-74.13,55.76-107.78,87.92c-37.89,36.21-73.06,74.87-105.82,115.65c-54.16,67.42-98.24,141.22-136.83,218.4l-0.01,0
				l-65.06,132.45h144.68l-0.01-0.03c0,0,0.01,0,0.01,0c1.41-3.43,2.66-6.37,3.81-9.33c5.62-14.41,10.78-29.01,16.89-43.2
				c28.15-65.46,59.6-129.35,95.07-191.14C1098,1455.86,1121.14,1417.77,1144.93,1380.13z"/>
		</g>
		<g>
			<g>
				<path class="st2" d="M1842.42,1281.17h-75.88v-44.72h206.65v44.72h-75.88v192.42h-54.88V1281.17z"/>
				<path class="st2" d="M2024.85,1449.54c-18.86-18.74-28.29-45.51-28.29-80.29v-132.8h54.88v130.76
					c0,42.46,17.62,63.69,52.85,63.69c17.16,0,30.26-5.13,39.3-15.41c9.03-10.27,13.55-26.37,13.55-48.27v-130.76h54.2v132.8
					c0,34.78-9.43,61.54-28.29,80.29c-18.86,18.75-45.22,28.12-79.1,28.12C2070.07,1477.66,2043.7,1468.29,2024.85,1449.54z"/>
				<path class="st2" d="M2416.63,1473.59l-45.73-66.06h-2.71h-47.77v66.06h-54.88v-237.13h102.64c21,0,39.24,3.5,54.71,10.5
					c15.47,7,27.38,16.94,35.74,29.81c8.35,12.87,12.53,28.12,12.53,45.73c0,17.62-4.23,32.81-12.7,45.56
					c-8.47,12.76-20.5,22.53-36.08,29.3l53.19,76.22H2416.63z M2402.74,1291.85c-8.59-7.11-21.12-10.67-37.6-10.67h-44.72v82.66
					h44.72c16.48,0,29.02-3.61,37.6-10.84c8.58-7.22,12.87-17.39,12.87-30.49C2415.61,1309.18,2411.32,1298.96,2402.74,1291.85z"/>
				<path class="st2" d="M2569.41,1280.5v62.67h109.76v44.04h-109.76v86.38h-54.88v-237.13h179.2v44.04H2569.41z"/>
			</g>
			<g>
				<path class="st1" d="M1986.16,1738.09l-0.32-134.1l-65.77,110.47h-23.31l-65.45-107.6v131.22h-48.53v-223.5h42.78l83.65,138.89
					l82.37-138.89h42.46l0.64,223.5H1986.16z"/>
				<path class="st1" d="M2087.7,1514.6h51.72v223.5h-51.72V1514.6z"/>
				<path class="st1" d="M2397.4,1514.6v223.5h-42.46L2243.5,1602.4v135.69h-51.08v-223.5h42.78l111.11,135.69V1514.6H2397.4z"/>
				<path class="st1" d="M2450.4,1514.6h101.53c24.27,0,45.71,4.63,64.33,13.89c18.62,9.26,33.1,22.3,43.42,39.11
					c10.32,16.82,15.49,36.4,15.49,58.75s-5.16,41.94-15.49,58.75c-10.33,16.82-24.8,29.85-43.42,39.11
					c-18.63,9.26-40.07,13.89-64.33,13.89H2450.4V1514.6z M2549.38,1695.63c22.35,0,40.17-6.23,53.48-18.68
					c13.3-12.45,19.96-29.32,19.96-50.61c0-21.28-6.66-38.15-19.96-50.61c-13.3-12.45-31.13-18.68-53.48-18.68h-47.25v138.57
					H2549.38z"/>
				<path class="st1" d="M2887.17,1696.59v41.51h-173.05v-223.5h168.9v41.51h-117.5v48.53h103.77v40.23h-103.77v51.72H2887.17z"/>
				<path class="st1" d="M3070.76,1738.09l-43.1-62.26h-2.55h-45.02v62.26h-51.72v-223.5h96.74c19.8,0,36.98,3.3,51.56,9.9
					c14.58,6.6,25.81,15.96,33.68,28.1c7.87,12.13,11.81,26.5,11.81,43.1c0,16.6-3.99,30.92-11.97,42.94
					c-7.98,12.03-19.32,21.23-34,27.62l50.13,71.84H3070.76z M3057.67,1566.8c-8.09-6.71-19.91-10.06-35.44-10.06h-42.14v77.9h42.14
					c15.53,0,27.35-3.4,35.44-10.22c8.09-6.81,12.13-16.39,12.13-28.74C3069.8,1583.14,3065.76,1573.51,3057.67,1566.8z"/>
				<path class="st1" d="M3185.22,1734.74c-16.5-4.79-29.75-11.02-39.75-18.68l17.56-38.95c9.58,7.02,20.96,12.67,34.16,16.92
					c13.2,4.26,26.39,6.39,39.59,6.39c14.69,0,25.54-2.18,32.57-6.55c7.02-4.36,10.54-10.16,10.54-17.4c0-5.32-2.08-9.74-6.23-13.25
					s-9.47-6.33-15.96-8.46c-6.49-2.13-15.27-4.47-26.34-7.02c-17.03-4.04-30.97-8.09-41.83-12.13
					c-10.85-4.04-20.17-10.54-27.94-19.48c-7.77-8.94-11.65-20.86-11.65-35.76c0-12.98,3.51-24.74,10.54-35.28
					c7.02-10.54,17.61-18.89,31.77-25.06c14.15-6.17,31.45-9.26,51.88-9.26c14.26,0,28.2,1.71,41.83,5.11
					c13.62,3.41,25.54,8.3,35.76,14.69l-15.96,39.27c-20.65-11.7-41.3-17.56-61.94-17.56c-14.48,0-25.17,2.35-32.09,7.02
					c-6.92,4.68-10.38,10.86-10.38,18.52s3.99,13.36,11.97,17.08c7.98,3.73,20.16,7.4,36.56,11.02
					c17.03,4.05,30.97,8.09,41.83,12.13c10.86,4.05,20.16,10.43,27.94,19.16c7.77,8.73,11.65,20.54,11.65,35.44
					c0,12.77-3.57,24.42-10.7,34.96c-7.13,10.54-17.83,18.89-32.09,25.06c-14.26,6.17-31.61,9.26-52.04,9.26
					C3218.8,1741.93,3201.72,1739.53,3185.22,1734.74z"/>
			</g>
		</g>
	</g>
	<g>
		<rect x="668.7" y="1844.78" class="st2" width="1032.51" height="10.84"/>
		<g>
			<path class="st2" d="M1764.1,1882.14c-6.96-3.79-12.42-9.02-16.36-15.69c-3.95-6.67-5.92-14.2-5.92-22.59
				c0-8.38,1.99-15.91,5.98-22.59c3.99-6.67,9.46-11.91,16.42-15.69c6.96-3.79,14.75-5.68,23.38-5.68c7,0,13.39,1.22,19.17,3.66
				c5.78,2.44,10.66,5.98,14.65,10.62l-10.26,9.65c-6.19-6.67-13.8-10.01-22.83-10.01c-5.86,0-11.11,1.28-15.75,3.85
				s-8.26,6.13-10.87,10.68c-2.61,4.56-3.91,9.73-3.91,15.51c0,5.78,1.3,10.95,3.91,15.51c2.6,4.56,6.23,8.12,10.87,10.68
				c4.64,2.56,9.89,3.85,15.75,3.85c9.04,0,16.65-3.38,22.83-10.14l10.26,9.77c-3.99,4.64-8.89,8.18-14.71,10.62
				c-5.82,2.44-12.23,3.66-19.23,3.66C1778.85,1887.82,1771.06,1885.93,1764.1,1882.14z"/>
			<path class="st2" d="M1837.06,1796h15.26v90.6h-15.26V1796z"/>
			<path class="st2" d="M1935.23,1858.88h-51.16c0.89,4.8,3.24,8.61,7.02,11.42c3.79,2.81,8.49,4.21,14.1,4.21
				c7.16,0,13.07-2.36,17.71-7.08l8.18,9.4c-2.93,3.5-6.64,6.15-11.11,7.94c-4.48,1.79-9.52,2.69-15.14,2.69
				c-7.16,0-13.47-1.42-18.93-4.27c-5.45-2.85-9.67-6.82-12.64-11.91c-2.97-5.09-4.46-10.85-4.46-17.28
				c0-6.35,1.44-12.07,4.33-17.16c2.89-5.09,6.9-9.06,12.03-11.91c5.13-2.85,10.91-4.27,17.34-4.27c6.35,0,12.03,1.4,17.03,4.21
				c5.01,2.81,8.91,6.76,11.72,11.84c2.81,5.09,4.21,10.97,4.21,17.64C1935.48,1855.42,1935.39,1856.93,1935.23,1858.88z
				 M1890.11,1837.21c-3.38,2.89-5.43,6.74-6.17,11.54h37c-0.65-4.72-2.65-8.55-5.98-11.48c-3.34-2.93-7.49-4.4-12.46-4.4
				C1897.62,1832.87,1893.49,1834.32,1890.11,1837.21z"/>
			<path class="st2" d="M1997.08,1827.56c5.09,4.6,7.63,11.54,7.63,20.82v38.22h-14.41v-7.94c-1.87,2.85-4.54,5.03-8,6.53
				c-3.46,1.51-7.63,2.26-12.52,2.26c-4.88,0-9.16-0.84-12.82-2.5c-3.66-1.67-6.49-3.99-8.49-6.96c-2-2.97-2.99-6.33-2.99-10.07
				c0-5.86,2.18-10.56,6.53-14.1c4.35-3.54,11.21-5.31,20.58-5.31h16.85v-0.98c0-4.56-1.36-8.06-4.09-10.5
				c-2.73-2.44-6.78-3.66-12.15-3.66c-3.66,0-7.27,0.57-10.81,1.71c-3.54,1.14-6.53,2.73-8.98,4.76l-5.98-11.11
				c3.42-2.6,7.53-4.6,12.33-5.98c4.8-1.38,9.89-2.08,15.26-2.08C1984.64,1820.66,1991.99,1822.96,1997.08,1827.56z
				 M1983.16,1873.72c2.97-1.75,5.07-4.25,6.29-7.51v-7.57h-15.75c-8.79,0-13.19,2.89-13.19,8.67c0,2.77,1.1,4.97,3.3,6.59
				c2.2,1.63,5.25,2.44,9.16,2.44C1976.79,1876.34,1980.19,1875.47,1983.16,1873.72z"/>
			<path class="st2" d="M2082.86,1827.87c4.96,4.8,7.45,11.93,7.45,21.37v37.36h-15.26v-35.41c0-5.7-1.34-9.99-4.03-12.88
				c-2.69-2.89-6.51-4.33-11.48-4.33c-5.62,0-10.06,1.69-13.31,5.07c-3.26,3.38-4.88,8.24-4.88,14.59v32.97h-15.26v-65.21h14.53
				v8.43c2.52-3.01,5.7-5.29,9.53-6.84c3.83-1.54,8.14-2.32,12.94-2.32C2071.3,1820.66,2077.9,1823.06,2082.86,1827.87z"/>
			<path class="st2" d="M2173.22,1858.88h-51.16c0.89,4.8,3.24,8.61,7.02,11.42c3.79,2.81,8.49,4.21,14.1,4.21
				c7.16,0,13.07-2.36,17.71-7.08l8.18,9.4c-2.93,3.5-6.64,6.15-11.11,7.94c-4.48,1.79-9.52,2.69-15.14,2.69
				c-7.16,0-13.47-1.42-18.93-4.27c-5.45-2.85-9.67-6.82-12.64-11.91c-2.97-5.09-4.46-10.85-4.46-17.28
				c0-6.35,1.44-12.07,4.33-17.16c2.89-5.09,6.9-9.06,12.03-11.91c5.13-2.85,10.91-4.27,17.34-4.27c6.35,0,12.03,1.4,17.03,4.21
				c5.01,2.81,8.91,6.76,11.72,11.84c2.81,5.09,4.21,10.97,4.21,17.64C2173.47,1855.42,2173.38,1856.93,2173.22,1858.88z
				 M2128.1,1837.21c-3.38,2.89-5.43,6.74-6.17,11.54h37c-0.65-4.72-2.65-8.55-5.98-11.48c-3.34-2.93-7.49-4.4-12.46-4.4
				C2135.61,1832.87,2131.48,1834.32,2128.1,1837.21z"/>
			<path class="st2" d="M2227.68,1820.66v14.53c-1.3-0.24-2.48-0.37-3.54-0.37c-5.94,0-10.58,1.73-13.92,5.19
				c-3.34,3.46-5.01,8.45-5.01,14.96v31.63h-15.26v-65.21h14.53v9.52C2208.88,1824.08,2216.61,1820.66,2227.68,1820.66z"/>
			<path class="st2" d="M2297.41,1814.56h-28.33v-13.43h72.53v13.43h-28.33v72.04h-15.87V1814.56z"/>
			<path class="st2" d="M2415.48,1821.39v65.21h-14.53v-8.3c-2.44,2.93-5.49,5.19-9.16,6.78c-3.66,1.59-7.61,2.38-11.84,2.38
				c-8.71,0-15.57-2.42-20.58-7.27c-5.01-4.84-7.51-12.03-7.51-21.55v-37.24h15.26v35.17c0,5.86,1.32,10.24,3.97,13.13
				c2.64,2.89,6.41,4.33,11.3,4.33c5.45,0,9.79-1.69,13.01-5.07c3.21-3.38,4.82-8.24,4.82-14.59v-32.97H2415.48z"/>
			<path class="st2" d="M2475.07,1820.66v14.53c-1.3-0.24-2.48-0.37-3.54-0.37c-5.94,0-10.58,1.73-13.92,5.19
				c-3.34,3.46-5.01,8.45-5.01,14.96v31.63h-15.26v-65.21h14.53v9.52C2456.27,1824.08,2464,1820.66,2475.07,1820.66z"/>
			<path class="st2" d="M2507.31,1817.98v3.91h17.95v12.21h-17.46v52.51h-15.26v-52.51h-10.75v-12.21h10.75v-4.15
				c0-7,2.03-12.52,6.11-16.55c4.07-4.03,9.81-6.04,17.22-6.04c5.86,0,10.46,1.18,13.8,3.54l-4.27,11.48
				c-2.61-1.79-5.41-2.69-8.43-2.69C2510.52,1807.47,2507.31,1810.97,2507.31,1817.98z"/>
			<path class="st2" d="M2533.93,1884.58c-1.95-1.91-2.93-4.33-2.93-7.27c0-3.01,0.96-5.45,2.87-7.33c1.91-1.87,4.29-2.81,7.14-2.81
				c2.85,0,5.23,0.94,7.14,2.81c1.91,1.87,2.87,4.32,2.87,7.33c0,2.93-0.98,5.35-2.93,7.27c-1.95,1.91-4.32,2.87-7.08,2.87
				C2538.24,1887.45,2535.88,1886.5,2533.93,1884.58z"/>
			<path class="st2" d="M2676.55,1849.91c2.77,3.62,4.15,8.12,4.15,13.49c0,7.41-2.85,13.13-8.55,17.16
				c-5.7,4.03-14,6.04-24.91,6.04h-42.49v-85.48h40.05c10.09,0,17.87,1.97,23.32,5.92c5.45,3.95,8.18,9.38,8.18,16.3
				c0,4.23-0.98,7.98-2.93,11.23c-1.95,3.26-4.64,5.78-8.06,7.57C2670.04,1843.7,2673.78,1846.29,2676.55,1849.91z M2620.63,1813.58
				v23.57h22.47c5.53,0,9.79-1,12.76-2.99c2.97-1.99,4.46-4.9,4.46-8.73c0-3.91-1.49-6.86-4.46-8.85
				c-2.97-1.99-7.23-2.99-12.76-2.99H2620.63z M2664.71,1861.81c0-8.22-6.15-12.33-18.44-12.33h-25.64v24.67h25.64
				C2658.56,1874.15,2664.71,1870.04,2664.71,1861.81z"/>
			<path class="st2" d="M2759.1,1858.88h-51.16c0.89,4.8,3.24,8.61,7.02,11.42c3.79,2.81,8.49,4.21,14.1,4.21
				c7.16,0,13.07-2.36,17.71-7.08l8.18,9.4c-2.93,3.5-6.64,6.15-11.11,7.94c-4.48,1.79-9.52,2.69-15.14,2.69
				c-7.16,0-13.47-1.42-18.93-4.27c-5.45-2.85-9.67-6.82-12.64-11.91c-2.97-5.09-4.46-10.85-4.46-17.28
				c0-6.35,1.44-12.07,4.33-17.16c2.89-5.09,6.9-9.06,12.03-11.91c5.13-2.85,10.91-4.27,17.34-4.27c6.35,0,12.03,1.4,17.03,4.21
				c5.01,2.81,8.91,6.76,11.72,11.84c2.81,5.09,4.21,10.97,4.21,17.64C2759.34,1855.42,2759.26,1856.93,2759.1,1858.88z
				 M2713.98,1837.21c-3.38,2.89-5.43,6.74-6.17,11.54h37c-0.65-4.72-2.65-8.55-5.98-11.48c-3.34-2.93-7.49-4.4-12.46-4.4
				C2721.49,1832.87,2717.35,1834.32,2713.98,1837.21z"/>
			<path class="st2" d="M2815.02,1883.06c-1.79,1.47-3.97,2.56-6.53,3.3c-2.56,0.73-5.27,1.1-8.12,1.1c-7.16,0-12.7-1.87-16.61-5.62
				c-3.91-3.74-5.86-9.2-5.86-16.36v-31.38h-10.75v-12.21h10.75v-14.9h15.26v14.9h17.46v12.21h-17.46v31.02
				c0,3.17,0.77,5.6,2.32,7.27c1.55,1.67,3.79,2.5,6.72,2.5c3.42,0,6.27-0.89,8.55-2.69L2815.02,1883.06z"/>
			<path class="st2" d="M2867.04,1883.06c-1.79,1.47-3.97,2.56-6.53,3.3c-2.56,0.73-5.27,1.1-8.12,1.1c-7.16,0-12.7-1.87-16.61-5.62
				c-3.91-3.74-5.86-9.2-5.86-16.36v-31.38h-10.75v-12.21h10.75v-14.9h15.26v14.9h17.46v12.21h-17.46v31.02
				c0,3.17,0.77,5.6,2.32,7.27c1.55,1.67,3.79,2.5,6.72,2.5c3.42,0,6.27-0.89,8.55-2.69L2867.04,1883.06z"/>
			<path class="st2" d="M2940.31,1858.88h-51.16c0.89,4.8,3.24,8.61,7.02,11.42c3.79,2.81,8.49,4.21,14.1,4.21
				c7.16,0,13.07-2.36,17.71-7.08l8.18,9.4c-2.93,3.5-6.64,6.15-11.11,7.94c-4.48,1.79-9.52,2.69-15.14,2.69
				c-7.16,0-13.47-1.42-18.93-4.27c-5.45-2.85-9.67-6.82-12.64-11.91c-2.97-5.09-4.46-10.85-4.46-17.28
				c0-6.35,1.44-12.07,4.33-17.16c2.89-5.09,6.9-9.06,12.03-11.91c5.13-2.85,10.91-4.27,17.34-4.27c6.35,0,12.03,1.4,17.03,4.21
				c5.01,2.81,8.91,6.76,11.72,11.84c2.81,5.09,4.21,10.97,4.21,17.64C2940.55,1855.42,2940.47,1856.93,2940.31,1858.88z
				 M2895.19,1837.21c-3.38,2.89-5.43,6.74-6.17,11.54h37c-0.65-4.72-2.65-8.55-5.98-11.48c-3.34-2.93-7.49-4.4-12.46-4.4
				C2902.7,1832.87,2898.56,1834.32,2895.19,1837.21z"/>
			<path class="st2" d="M2994.76,1820.66v14.53c-1.3-0.24-2.48-0.37-3.54-0.37c-5.94,0-10.58,1.73-13.92,5.19
				c-3.34,3.46-5.01,8.45-5.01,14.96v31.63h-15.26v-65.21h14.53v9.52C2975.96,1824.08,2983.69,1820.66,2994.76,1820.66z"/>
			<path class="st2" d="M3101.67,1804.79c5.5,2.44,9.71,5.94,12.64,10.5c2.93,4.56,4.4,9.97,4.4,16.24c0,6.19-1.46,11.58-4.4,16.18
				s-7.14,8.12-12.64,10.56c-5.49,2.44-11.95,3.66-19.35,3.66h-19.29v24.67h-15.87v-85.48h35.17
				C3089.72,1801.12,3096.18,1802.35,3101.67,1804.79z M3097.33,1844.11c3.58-2.93,5.37-7.12,5.37-12.58
				c0-5.45-1.79-9.65-5.37-12.58c-3.58-2.93-8.83-4.4-15.75-4.4h-18.56v33.95h18.56C3088.5,1848.5,3093.75,1847.04,3097.33,1844.11z
				"/>
			<path class="st2" d="M3136.17,1796h15.26v90.6h-15.26V1796z"/>
			<path class="st2" d="M3220.24,1827.56c5.09,4.6,7.63,11.54,7.63,20.82v38.22h-14.41v-7.94c-1.87,2.85-4.54,5.03-8,6.53
				c-3.46,1.51-7.63,2.26-12.52,2.26s-9.16-0.84-12.82-2.5s-6.49-3.99-8.49-6.96c-2-2.97-2.99-6.33-2.99-10.07
				c0-5.86,2.18-10.56,6.53-14.1c4.35-3.54,11.21-5.31,20.58-5.31h16.85v-0.98c0-4.56-1.36-8.06-4.09-10.5
				c-2.73-2.44-6.78-3.66-12.15-3.66c-3.66,0-7.27,0.57-10.81,1.71c-3.54,1.14-6.53,2.73-8.98,4.76l-5.98-11.11
				c3.42-2.6,7.53-4.6,12.33-5.98c4.8-1.38,9.89-2.08,15.26-2.08C3207.8,1820.66,3215.15,1822.96,3220.24,1827.56z M3206.32,1873.72
				c2.97-1.75,5.07-4.25,6.29-7.51v-7.57h-15.75c-8.79,0-13.19,2.89-13.19,8.67c0,2.77,1.1,4.97,3.3,6.59
				c2.2,1.63,5.25,2.44,9.16,2.44C3199.95,1876.34,3203.35,1875.47,3206.32,1873.72z"/>
			<path class="st2" d="M3309.07,1821.39l-30.53,70.46c-2.85,7.08-6.31,12.07-10.38,14.96c-4.07,2.89-9,4.33-14.77,4.33
				c-3.26,0-6.47-0.53-9.65-1.59c-3.17-1.06-5.78-2.52-7.81-4.4l6.1-11.23c1.47,1.38,3.19,2.48,5.19,3.3
				c1.99,0.81,4.01,1.22,6.04,1.22c2.69,0,4.9-0.69,6.66-2.08c1.75-1.39,3.36-3.71,4.82-6.96l1.1-2.56l-28.45-65.45h15.87
				l20.52,48.23l20.64-48.23H3309.07z"/>
			<path class="st2" d="M3314.2,1884.58c-1.95-1.91-2.93-4.33-2.93-7.27c0-3.01,0.96-5.45,2.87-7.33c1.91-1.87,4.29-2.81,7.14-2.81
				c2.85,0,5.23,0.94,7.14,2.81c1.91,1.87,2.87,4.32,2.87,7.33c0,2.93-0.98,5.35-2.93,7.27c-1.95,1.91-4.32,2.87-7.08,2.87
				C3318.51,1887.45,3316.15,1886.5,3314.2,1884.58z"/>
		</g>
	</g>
</g>
</svg>
